<?xml version="1.0" encoding="UTF-8"?>
<svg version="1.1" xmlns="http://www.w3.org/2000/svg" width="1042" height="1043" viewBox="160 132 761 761">
<path d="M0 0 C1.91102405 -0.00187148 3.82204772 -0.00417351 5.73307079 -0.00686532 C10.95123165 -0.01294816 16.1693764 -0.0128539 21.38753998 -0.01167095 C27.02851424 -0.01146605 32.66948345 -0.01699421 38.31045532 -0.02172852 C49.35002108 -0.03001639 60.3895815 -0.03278252 71.42915011 -0.03334089 C80.40794673 -0.03381695 89.38674159 -0.03587619 98.36553764 -0.03904152 C119.70987871 -0.04641236 141.05421815 -0.05256689 162.39856052 -0.05204296 C163.08025387 -0.05202738 163.76194722 -0.0520118 164.46429795 -0.05199575 C167.91889803 -0.05191265 171.37349811 -0.05181361 174.82809819 -0.05171105 C175.51411429 -0.0516911 176.20013039 -0.05167115 176.90693486 -0.05165061 C178.29422544 -0.05161017 179.68151601 -0.05156837 181.06880658 -0.05152521 C202.6409248 -0.0509128 224.21302728 -0.05841497 245.78514099 -0.07209778 C270.05834627 -0.08748774 294.33153799 -0.09604959 318.60474914 -0.09513456 C331.44290281 -0.09480327 344.28103873 -0.09752016 357.11918831 -0.10831261 C368.05111774 -0.11744409 378.98302139 -0.11957119 389.914953 -0.11280318 C395.48512787 -0.10955128 401.05525334 -0.10943293 406.62542343 -0.11815643 C411.73871229 -0.12608156 416.85191307 -0.1245294 421.96519994 -0.1158723 C423.80094416 -0.11435043 425.63669515 -0.11610299 427.47243137 -0.12173238 C443.84785303 -0.16856517 460.72744262 0.23461234 476.65501404 4.38371277 C477.95124695 4.71012756 477.95124695 4.71012756 479.27366638 5.0431366 C517.06160694 14.88280078 551.34119289 39.67571113 571.25511169 73.53556824 C577.72371568 84.9639433 583.13397043 96.52833329 586.84251404 109.13371277 C587.0392572 109.79677429 587.23600037 110.45983582 587.43870544 111.14299011 C592.30860454 127.96814277 593.14161503 144.7518855 593.10321045 162.14549255 C593.10623778 164.11272919 593.11013016 166.07996464 593.11480302 168.04719806 C593.12501677 173.40681753 593.12291822 178.76636961 593.11862242 184.12599444 C593.11614308 189.92438638 593.1251843 195.7227626 593.13265991 201.52114868 C593.14537552 212.86310696 593.14720452 224.20504153 593.14485965 235.54700574 C593.1430728 244.77125123 593.14483398 253.99548956 593.14908409 263.21973419 C593.14967928 264.53521499 593.15027447 265.8506958 593.15088769 267.20603965 C593.15179502 269.20876494 593.15270369 271.21149024 593.15362005 273.21421552 C593.16204049 291.81651799 593.16639156 310.41881787 593.16221333 329.02112198 C593.16205695 329.72129446 593.16190057 330.42146695 593.16173946 331.14285678 C593.16093377 334.69099953 593.16008799 338.23914227 593.15922616 341.787285 C593.15905507 342.4918623 593.15888398 343.1964396 593.15870771 343.92236773 C593.15836105 345.34719146 593.15801252 346.7720152 593.15766212 348.19683894 C593.1523066 370.36022018 593.16023426 392.52356161 593.17869568 414.68693542 C593.19944977 439.63147228 593.21013192 464.57598449 593.20612019 489.52053046 C593.20416276 502.7118793 593.20666202 515.90319343 593.22083473 529.09453583 C593.23277887 540.32467599 593.23411948 551.55475759 593.22204456 562.78489861 C593.21617714 568.50700934 593.21499699 574.22901311 593.22704697 579.95111656 C593.2379778 585.20310548 593.23471776 590.45489905 593.22078528 595.70687911 C593.21815802 597.59300391 593.22044179 599.47914439 593.22852115 601.36525372 C593.2947128 617.98949597 592.02879207 634.83440255 587.15501404 650.82121277 C586.90082703 651.6773114 586.64664001 652.53341003 586.38475037 653.41545105 C574.52211705 691.86870421 547.40350601 724.14037734 511.95579529 743.06730652 C491.04761534 753.80962962 467.87932356 760.32148051 444.29461193 760.26514053 C443.07239387 760.26821948 443.07239387 760.26821948 441.82548454 760.27136064 C439.10769075 760.27699437 436.38994822 760.27557789 433.67214966 760.27415466 C431.69873125 760.27674039 429.72531337 760.27975413 427.7518962 760.28315806 C422.33808457 760.29120711 416.92428622 760.29301647 411.51046932 760.29375553 C405.667651 760.29560978 399.8248395 760.30315905 393.98202515 760.30989075 C381.20889624 760.3234604 368.43577048 760.32949685 355.66263556 760.33390141 C347.68176504 760.33666653 339.70089572 760.34090441 331.72002602 760.34540558 C309.60898135 760.35765269 287.49793745 760.36793159 265.38688946 760.37128067 C263.95799444 760.3715023 262.52909942 760.37172408 261.1002044 760.37194602 C259.66794889 760.37216666 258.23569339 760.37238714 256.80343789 760.37260747 C253.93031418 760.37305001 251.05719048 760.37349713 248.18406677 760.37394714 C247.47170344 760.37405653 246.7593401 760.37416593 246.02539 760.37427863 C222.94445001 760.37790655 199.86354148 760.39381736 176.78261353 760.41713751 C152.35309709 760.44177487 127.92359862 760.45545535 103.4940694 760.45664859 C100.80837142 760.45682003 98.12267345 760.45703545 95.43697548 760.45728302 C94.44510758 760.45736667 94.44510758 760.45736667 93.43320194 760.45745202 C83.48081175 760.45852829 73.52845107 760.46786205 63.57607079 760.4814682 C52.2425064 760.4969083 40.90899593 760.50196668 29.57542302 760.4937301 C23.79880704 760.48983724 18.0222995 760.4906862 12.24569702 760.50478745 C6.9447185 760.5176086 1.64392901 760.51625744 -3.65704956 760.50419673 C-5.56224 760.50225385 -7.46744422 760.50525197 -9.37261537 760.5140411 C-25.73585813 760.58467532 -42.0402506 759.1939501 -57.78248596 754.44621277 C-59.07448914 754.0638446 -59.07448914 754.0638446 -60.39259338 753.67375183 C-97.84612707 742.16228293 -129.51469963 715.91995397 -148.32154846 681.64543152 C-162.75412228 654.03929564 -167.31964551 626.91169401 -167.29119873 595.96876526 C-167.29306929 594.03258044 -167.29537097 592.09639601 -167.29806405 590.16021216 C-167.30415814 584.86333139 -167.30405129 579.56646646 -167.30286968 574.26958299 C-167.30266506 568.5475123 -167.30819021 562.82544663 -167.31292725 557.1033783 C-167.32122127 545.90144828 -167.32398152 534.69952353 -167.32453962 523.49759071 C-167.32501538 514.38857172 -167.32707313 505.27955447 -167.33024025 496.17053604 C-167.33761198 474.52688532 -167.34376544 452.88323609 -167.34324169 431.23958397 C-167.34322611 430.54808577 -167.34321053 429.85658757 -167.34319448 429.14413488 C-167.34311138 425.63970997 -167.34301234 422.13528505 -167.34290978 418.63086013 C-167.34288983 417.93492812 -167.34286989 417.23899611 -167.34284934 416.52197525 C-167.3428089 415.114632 -167.3427671 413.70728875 -167.34272394 412.29994551 C-167.34211143 390.41265946 -167.34961486 368.52538891 -167.36329651 346.6381073 C-167.37867882 322.02031992 -167.38724878 297.40254311 -167.38633329 272.78475058 C-167.38600175 259.76054468 -167.38872965 246.73635627 -167.39951134 233.71215439 C-167.40863312 222.62235427 -167.41077782 211.53257957 -167.40400191 200.44277732 C-167.40074517 194.78995239 -167.4006494 189.13717617 -167.40935516 183.48435593 C-167.41725856 178.29897812 -167.4157498 173.11368733 -167.40707103 167.92831154 C-167.40554446 166.06295143 -167.40732001 164.1975847 -167.41293111 162.3322324 C-167.45624894 146.89634665 -166.69865968 131.54437255 -162.90748596 116.50871277 C-162.6906012 115.63247253 -162.47371643 114.7562323 -162.2502594 113.85343933 C-152.14857971 74.40946957 -126.48020584 41.82531184 -91.85670471 20.86027527 C-76.77873667 11.98011194 -60.56208606 6.16400878 -43.40748596 2.82121277 C-42.59328186 2.66177185 -41.77907776 2.50233093 -40.94020081 2.33805847 C-27.40133137 -0.10335492 -13.7039507 -0.01282448 0 0 Z " fill="#FEFEFE" transform="translate(327.15748596191406,132.8662872314453)"/>
<path d="M0 0 C1.91102405 -0.00187148 3.82204772 -0.00417351 5.73307079 -0.00686532 C10.95123165 -0.01294816 16.1693764 -0.0128539 21.38753998 -0.01167095 C27.02851424 -0.01146605 32.66948345 -0.01699421 38.31045532 -0.02172852 C49.35002108 -0.03001639 60.3895815 -0.03278252 71.42915011 -0.03334089 C80.40794673 -0.03381695 89.38674159 -0.03587619 98.36553764 -0.03904152 C119.70987871 -0.04641236 141.05421815 -0.05256689 162.39856052 -0.05204296 C163.08025387 -0.05202738 163.76194722 -0.0520118 164.46429795 -0.05199575 C167.91889803 -0.05191265 171.37349811 -0.05181361 174.82809819 -0.05171105 C175.51411429 -0.0516911 176.20013039 -0.05167115 176.90693486 -0.05165061 C178.29422544 -0.05161017 179.68151601 -0.05156837 181.06880658 -0.05152521 C202.6409248 -0.0509128 224.21302728 -0.05841497 245.78514099 -0.07209778 C270.05834627 -0.08748774 294.33153799 -0.09604959 318.60474914 -0.09513456 C331.44290281 -0.09480327 344.28103873 -0.09752016 357.11918831 -0.10831261 C368.05111774 -0.11744409 378.98302139 -0.11957119 389.914953 -0.11280318 C395.48512787 -0.10955128 401.05525334 -0.10943293 406.62542343 -0.11815643 C411.73871229 -0.12608156 416.85191307 -0.1245294 421.96519994 -0.1158723 C423.80094416 -0.11435043 425.63669515 -0.11610299 427.47243137 -0.12173238 C443.84785303 -0.16856517 460.72744262 0.23461234 476.65501404 4.38371277 C477.95124695 4.71012756 477.95124695 4.71012756 479.27366638 5.0431366 C517.06160694 14.88280078 551.34119289 39.67571113 571.25511169 73.53556824 C577.72371568 84.9639433 583.13397043 96.52833329 586.84251404 109.13371277 C587.0392572 109.79677429 587.23600037 110.45983582 587.43870544 111.14299011 C592.30860454 127.96814277 593.14161503 144.7518855 593.10321045 162.14549255 C593.10623778 164.11272919 593.11013016 166.07996464 593.11480302 168.04719806 C593.12501677 173.40681753 593.12291822 178.76636961 593.11862242 184.12599444 C593.11614308 189.92438638 593.1251843 195.7227626 593.13265991 201.52114868 C593.14537552 212.86310696 593.14720452 224.20504153 593.14485965 235.54700574 C593.1430728 244.77125123 593.14483398 253.99548956 593.14908409 263.21973419 C593.14967928 264.53521499 593.15027447 265.8506958 593.15088769 267.20603965 C593.15179502 269.20876494 593.15270369 271.21149024 593.15362005 273.21421552 C593.16204049 291.81651799 593.16639156 310.41881787 593.16221333 329.02112198 C593.16205695 329.72129446 593.16190057 330.42146695 593.16173946 331.14285678 C593.16093377 334.69099953 593.16008799 338.23914227 593.15922616 341.787285 C593.15905507 342.4918623 593.15888398 343.1964396 593.15870771 343.92236773 C593.15836105 345.34719146 593.15801252 346.7720152 593.15766212 348.19683894 C593.1523066 370.36022018 593.16023426 392.52356161 593.17869568 414.68693542 C593.19944977 439.63147228 593.21013192 464.57598449 593.20612019 489.52053046 C593.20416276 502.7118793 593.20666202 515.90319343 593.22083473 529.09453583 C593.23277887 540.32467599 593.23411948 551.55475759 593.22204456 562.78489861 C593.21617714 568.50700934 593.21499699 574.22901311 593.22704697 579.95111656 C593.2379778 585.20310548 593.23471776 590.45489905 593.22078528 595.70687911 C593.21815802 597.59300391 593.22044179 599.47914439 593.22852115 601.36525372 C593.2947128 617.98949597 592.02879207 634.83440255 587.15501404 650.82121277 C586.90082703 651.6773114 586.64664001 652.53341003 586.38475037 653.41545105 C574.52211705 691.86870421 547.40350601 724.14037734 511.95579529 743.06730652 C491.04761534 753.80962962 467.87932356 760.32148051 444.29461193 760.26514053 C443.07239387 760.26821948 443.07239387 760.26821948 441.82548454 760.27136064 C439.10769075 760.27699437 436.38994822 760.27557789 433.67214966 760.27415466 C431.69873125 760.27674039 429.72531337 760.27975413 427.7518962 760.28315806 C422.33808457 760.29120711 416.92428622 760.29301647 411.51046932 760.29375553 C405.667651 760.29560978 399.8248395 760.30315905 393.98202515 760.30989075 C381.20889624 760.3234604 368.43577048 760.32949685 355.66263556 760.33390141 C347.68176504 760.33666653 339.70089572 760.34090441 331.72002602 760.34540558 C309.60898135 760.35765269 287.49793745 760.36793159 265.38688946 760.37128067 C263.95799444 760.3715023 262.52909942 760.37172408 261.1002044 760.37194602 C259.66794889 760.37216666 258.23569339 760.37238714 256.80343789 760.37260747 C253.93031418 760.37305001 251.05719048 760.37349713 248.18406677 760.37394714 C247.47170344 760.37405653 246.7593401 760.37416593 246.02539 760.37427863 C222.94445001 760.37790655 199.86354148 760.39381736 176.78261353 760.41713751 C152.35309709 760.44177487 127.92359862 760.45545535 103.4940694 760.45664859 C100.80837142 760.45682003 98.12267345 760.45703545 95.43697548 760.45728302 C94.44510758 760.45736667 94.44510758 760.45736667 93.43320194 760.45745202 C83.48081175 760.45852829 73.52845107 760.46786205 63.57607079 760.4814682 C52.2425064 760.4969083 40.90899593 760.50196668 29.57542302 760.4937301 C23.79880704 760.48983724 18.0222995 760.4906862 12.24569702 760.50478745 C6.9447185 760.5176086 1.64392901 760.51625744 -3.65704956 760.50419673 C-5.56224 760.50225385 -7.46744422 760.50525197 -9.37261537 760.5140411 C-25.73585813 760.58467532 -42.0402506 759.1939501 -57.78248596 754.44621277 C-59.07448914 754.0638446 -59.07448914 754.0638446 -60.39259338 753.67375183 C-97.84612707 742.16228293 -129.51469963 715.91995397 -148.32154846 681.64543152 C-162.75412228 654.03929564 -167.31964551 626.91169401 -167.29119873 595.96876526 C-167.29306929 594.03258044 -167.29537097 592.09639601 -167.29806405 590.16021216 C-167.30415814 584.86333139 -167.30405129 579.56646646 -167.30286968 574.26958299 C-167.30266506 568.5475123 -167.30819021 562.82544663 -167.31292725 557.1033783 C-167.32122127 545.90144828 -167.32398152 534.69952353 -167.32453962 523.49759071 C-167.32501538 514.38857172 -167.32707313 505.27955447 -167.33024025 496.17053604 C-167.33761198 474.52688532 -167.34376544 452.88323609 -167.34324169 431.23958397 C-167.34322611 430.54808577 -167.34321053 429.85658757 -167.34319448 429.14413488 C-167.34311138 425.63970997 -167.34301234 422.13528505 -167.34290978 418.63086013 C-167.34288983 417.93492812 -167.34286989 417.23899611 -167.34284934 416.52197525 C-167.3428089 415.114632 -167.3427671 413.70728875 -167.34272394 412.29994551 C-167.34211143 390.41265946 -167.34961486 368.52538891 -167.36329651 346.6381073 C-167.37867882 322.02031992 -167.38724878 297.40254311 -167.38633329 272.78475058 C-167.38600175 259.76054468 -167.38872965 246.73635627 -167.39951134 233.71215439 C-167.40863312 222.62235427 -167.41077782 211.53257957 -167.40400191 200.44277732 C-167.40074517 194.78995239 -167.4006494 189.13717617 -167.40935516 183.48435593 C-167.41725856 178.29897812 -167.4157498 173.11368733 -167.40707103 167.92831154 C-167.40554446 166.06295143 -167.40732001 164.1975847 -167.41293111 162.3322324 C-167.45624894 146.89634665 -166.69865968 131.54437255 -162.90748596 116.50871277 C-162.6906012 115.63247253 -162.47371643 114.7562323 -162.2502594 113.85343933 C-152.14857971 74.40946957 -126.48020584 41.82531184 -91.85670471 20.86027527 C-76.77873667 11.98011194 -60.56208606 6.16400878 -43.40748596 2.82121277 C-42.59328186 2.66177185 -41.77907776 2.50233093 -40.94020081 2.33805847 C-27.40133137 -0.10335492 -13.7039507 -0.01282448 0 0 Z M-78.15748596 85.13371277 C-79.07272034 85.95484558 -79.98795471 86.77597839 -80.93092346 87.62199402 C-94.36847613 100.32556272 -104.3397004 117.24753896 -109.15748596 135.13371277 C-109.40982813 136.05913376 -109.6621703 136.98455475 -109.92215919 137.9380188 C-112.90702678 150.60001 -112.579584 163.25486618 -112.54566956 176.20011902 C-112.54974063 178.81835651 -112.5550855 181.43659228 -112.56159973 184.05482483 C-112.57486123 190.39655525 -112.57209346 196.73817848 -112.56336181 203.0799129 C-112.55655555 208.23914127 -112.55568117 213.39833983 -112.55893326 218.55757141 C-112.55939296 219.29500503 -112.55985266 220.03243865 -112.56032629 220.79221874 C-112.56128557 222.29082577 -112.56225821 223.78943279 -112.56324406 225.2880398 C-112.57177574 239.30351512 -112.56199886 253.31893134 -112.54584296 267.33439696 C-112.5324418 279.33100836 -112.53477052 291.32753263 -112.54859924 303.32414246 C-112.56469449 317.29331232 -112.57095197 331.26243054 -112.56176245 345.23160839 C-112.56080692 346.72435696 -112.5598638 348.21710554 -112.55893326 349.70985413 C-112.55847043 350.44410018 -112.5580076 351.17834623 -112.55753075 351.93484217 C-112.55495267 357.08115202 -112.5592862 362.2274288 -112.56637192 367.37373352 C-112.57571934 374.31452021 -112.56895797 381.25514069 -112.55168915 388.19591141 C-112.54774233 390.73423619 -112.54882716 393.27257487 -112.55547714 395.81089401 C-112.62578594 425.38817794 -106.72288022 452.72913691 -86.15748596 475.13371277 C-85.31315002 476.05925964 -84.46881409 476.98480652 -83.59889221 477.93840027 C-67.2491114 495.07126202 -44.08076224 507.57972858 -20.15748596 509.13371277 C-15.62206147 509.19714615 -11.09125048 509.13982583 -6.55656815 509.06112862 C-2.51828782 508.99136408 1.52026503 508.94082583 5.55877686 508.88647461 C6.84539355 508.86832622 6.84539355 508.86832622 8.1580025 508.8498112 C19.17728796 508.69763681 30.19729181 508.64248104 41.21741641 508.58570921 C51.93410129 508.53027172 62.64804652 508.44307016 73.36326599 508.25260925 C81.89529902 508.10112715 90.42465501 508.02078069 98.95808047 508.02358025 C103.46699121 508.02250044 107.96931779 507.98658717 112.47670937 507.86448097 C139.80652687 507.15637872 139.80652687 507.15637872 146.49168015 512.08799362 C150.63916088 516.74783894 152.98069438 521.86887898 154.96610165 527.73271275 C156.23141189 531.19912873 158.05996111 533.9982063 160.09251404 537.07121277 C161.03622864 538.59814758 161.03622864 538.59814758 161.99900818 540.15592957 C162.60736511 541.13859802 163.21572205 542.12126648 163.84251404 543.13371277 C167.81674575 549.58110419 171.78277065 556.03343685 175.73704529 562.49308777 C179.75397384 569.05130751 183.79268894 575.59577319 187.84251404 582.13371277 C188.40535095 583.04524109 188.96818787 583.95676941 189.54808044 584.8959198 C191.00958649 587.25358503 192.48517457 589.60160771 193.96751404 591.94621277 C194.37977234 592.61426941 194.79203064 593.28232605 195.21678162 593.97062683 C198.2611265 598.73071702 201.69088683 602.55789917 206.84251404 605.13371277 C213.04915596 605.6610745 218.62359736 605.89618759 223.84251404 602.13371277 C227.90281883 598.38833466 230.70094692 593.84809599 233.55735779 589.15715027 C234.26923601 587.99160103 234.98115098 586.82607424 235.69309998 585.66056824 C236.0518219 585.07160767 236.41054382 584.48264709 236.78013611 583.87583923 C238.4012658 581.21745105 240.03433697 578.56644359 241.66673279 575.91496277 C242.29619812 574.89144714 242.92566345 573.86793152 243.57420349 572.81340027 C249.25450905 563.57856073 254.94257403 554.34872126 260.65501404 545.13371277 C264.75410061 538.51833022 268.84126535 531.89587135 272.90501404 525.25871277 C273.34627625 524.53941589 273.78753845 523.82011902 274.24217224 523.07902527 C274.6581366 522.39840027 275.07410095 521.71777527 275.50267029 521.01652527 C275.85982117 520.43274109 276.21697205 519.84895691 276.58494568 519.2474823 C278.04016839 516.98788954 278.04016839 516.98788954 278.95819092 513.55303955 C280.0537138 511.67288589 280.0537138 511.67288589 281.84251404 510.13371277 C286.94121201 509.02960941 292.06123233 509.23274959 297.24925232 509.31071472 C298.85608964 509.30937495 300.46292695 509.3049023 302.06974792 509.29753113 C305.53280471 509.28827578 308.99484241 509.30102029 312.45778275 509.3306675 C317.94924564 509.3773123 323.43998559 509.37383963 328.93159485 509.36349487 C338.62768023 509.35166249 348.32328173 509.38257389 358.01927185 509.4226532 C372.56351463 509.48232372 387.10777502 509.5068191 401.65213192 509.49440736 C407.09329391 509.49132379 412.53382424 509.50948897 417.97486329 509.54540026 C421.38897054 509.56417194 424.80295743 509.56626082 428.21710968 509.56449127 C429.78021129 509.56711206 431.34332141 509.57645974 432.90633011 509.59370232 C459.85113754 509.87937788 485.79449507 500.73347429 505.20188904 481.74308777 C506.07329529 480.88199402 506.94470154 480.02090027 507.84251404 479.13371277 C508.56954529 478.47886902 509.29657654 477.82402527 510.04563904 477.14933777 C527.09668081 461.44089771 536.97150503 435.19628234 537.9563601 412.51141548 C538.15311666 404.82226545 538.1257325 397.13143884 538.11717224 389.44035339 C538.12152518 386.85019789 538.12671027 384.26004368 538.13265991 381.66989136 C538.14533888 375.39322076 538.14720927 369.11659307 538.14485965 362.83991182 C538.14306913 357.73404935 538.14484176 352.6281998 538.14908409 347.52233887 C538.14967928 346.79280712 538.15027447 346.06327537 538.15088769 345.3116366 C538.15209957 343.82913331 538.1533137 342.34663003 538.15453007 340.86412674 C538.16537881 326.99606134 538.16325544 313.12802032 538.15714522 299.25995356 C538.15197508 286.59911222 538.16323885 273.9383478 538.18224344 261.27752167 C538.2016568 248.24344056 538.20987194 235.20939577 538.20612019 222.17530012 C538.20421388 214.87115411 538.20664012 207.56707359 538.22083473 200.26293945 C538.23404912 193.39440601 538.23144128 186.52602864 538.21842384 179.6574955 C538.21606512 177.14454915 538.21876736 174.63159188 538.22704697 172.11865807 C538.29106863 153.92404907 538.29106863 153.92404907 534.84251404 136.13371277 C534.55271321 135.02851036 534.26291239 133.92330795 533.96432972 132.78461456 C527.19219817 107.46469864 509.33264454 85.33276686 486.7809906 72.20353699 C471.54190688 63.79325174 455.05859292 58.95968411 437.59110165 59.002285 C436.79620595 59.00023237 436.00131026 58.99817974 435.18232682 58.9960649 C432.52631039 58.99042327 429.87034629 58.99184863 427.21432495 58.99327087 C425.28770373 58.99068561 423.36108304 58.987672 421.43446308 58.98426747 C416.14555786 58.97621318 410.85666621 58.97440878 405.56775558 58.97367001 C399.86134915 58.97181672 394.15494973 58.96426801 388.44854736 58.95753479 C375.97320615 58.94396221 363.49786815 58.93792846 351.02252078 58.93352413 C343.23047807 58.93075995 335.4384366 58.92652228 327.64639473 58.92201996 C306.06552279 58.90982881 284.48465235 58.89949376 262.90377712 58.89614487 C261.50904211 58.89592324 260.11430709 58.89570145 258.71957207 58.89547952 C257.32153271 58.89525888 255.92349335 58.89503839 254.52545398 58.89481807 C251.72090304 58.89437552 248.91635209 58.89392841 246.11180115 58.89347839 C245.06875829 58.89331431 245.06875829 58.89331431 244.00464386 58.89314691 C221.4640933 58.88951732 198.92357492 58.87359984 176.38303668 58.85028803 C152.53398935 58.82566818 128.68496247 58.81197774 104.8359018 58.81077695 C91.8424615 58.80986087 78.84906336 58.80412541 65.85563469 58.78595734 C54.79089658 58.77054038 43.72621364 58.76544534 32.66146683 58.77369544 C27.01914394 58.77759622 21.37693211 58.77670017 15.73462296 58.76263809 C10.56216043 58.74986521 5.38989203 58.75112642 0.21742965 58.7632288 C-1.64665224 58.76517993 -3.51074804 58.76213461 -5.37481041 58.75338444 C-32.95467258 58.63219151 -57.45872369 66.41934511 -78.15748596 85.13371277 Z " fill="#2CB24A" transform="translate(327.15748596191406,132.8662872314453)"/>
<path d="M0 0 C0.99 0.99 1.98 1.98 3 3 C3.33 0.03 3.66 -2.94 4 -6 C16.87 -6 29.74 -6 43 -6 C43.06786151 10.23838848 43.1230656 26.47665491 43.15543652 42.71514606 C43.17086999 50.25586862 43.19189168 57.79649646 43.22631836 65.3371582 C43.25632906 71.91373089 43.27560056 78.49023494 43.28226548 85.06687421 C43.28615811 88.54543034 43.29523168 92.0237902 43.31719017 95.5022831 C43.34157091 99.39649612 43.34196255 103.29052151 43.34057617 107.18481445 C43.351362 108.32345947 43.36214783 109.46210449 43.3732605 110.63525391 C43.31668979 125.38570211 38.75613983 138.89460679 29 150 C28.47664062 150.61746094 27.95328125 151.23492188 27.4140625 151.87109375 C17.79439456 162.40580327 3.13408084 168.22465642 -10.95898438 169.20605469 C-17.33541494 169.40972941 -23.60755999 169.20229241 -30 169 C-30 157.12 -30 145.24 -30 133 C-25.8234375 132.9071875 -25.8234375 132.9071875 -21.5625 132.8125 C-14.58560931 132.49105621 -8.23936861 132.14301241 -3 127 C-0.96510075 124.13331711 0.58626936 121.21245043 2 118 C2.33 117.34 2.66 116.68 3 116 C3.08308638 114.62451844 3.10736016 113.24514204 3.09765625 111.8671875 C3.09443359 111.06152344 3.09121094 110.25585938 3.08789062 109.42578125 C3.07951172 108.58402344 3.07113281 107.74226563 3.0625 106.875 C3.05798828 106.02550781 3.05347656 105.17601562 3.04882812 104.30078125 C3.03702874 102.20049091 3.01909306 100.1002367 3 98 C2.18208984 98.68835938 2.18208984 98.68835938 1.34765625 99.390625 C-12.15334498 110.37605506 -25.12328685 110.89807419 -42 110 C-53.93828312 108.3429924 -64.03512827 101.901161 -72 93 C-84.69953269 74.68294596 -87.63253338 53.73949089 -83.9375 32 C-80.76969331 18.4702088 -73.1956755 6.89585143 -61.625 -0.8125 C-41.8421621 -12.61662427 -19.25653799 -13.94054391 0 0 Z " fill="#F37528" transform="translate(751,381)"/>
<path d="M0 0 C13.2 0 26.4 0 40 0 C40.33 20.13 40.66 40.26 41 61 C43.31 59.02 45.62 57.04 48 55 C51.0625 53.171875 51.0625 53.171875 54 51.75 C54.969375 51.27046875 55.93875 50.7909375 56.9375 50.296875 C68.96982059 45.20155557 82.78543712 45.51962338 95 50 C110.12063632 56.31938318 119.21660472 68.42589177 125.3125 83.17578125 C131.94528909 101.9768121 131.66919175 120.83270806 123.5078125 139.18359375 C115.68331862 153.79877532 103.11609272 161.897432 87.875 167.375 C76.66050128 170.56567971 64.25464778 170.79969996 53.6328125 165.63671875 C48.92455565 162.70977569 43.5353965 159.07079299 41 154 C40.67 157.63 40.34 161.26 40 165 C26.8 165 13.6 165 0 165 C0 110.55 0 56.1 0 0 Z " fill="#F37527" transform="translate(286,324)"/>
<path d="M0 0 C12.57736266 10.53041394 18.30129119 25.03213719 20 41 C21.00596235 57.3382161 17.46869979 72.63884951 7.375 85.8125 C-5.46683483 99.30325733 -25.09743434 106.61785695 -43.40625 107.23828125 C-62.56417196 107.58655006 -79.58462709 105.29057017 -94.75 92.4375 C-107.06109726 80.51666807 -113.00770178 65.4923475 -113.48779297 48.57128906 C-113.56170504 31.11030116 -109.76332521 17.26003862 -97.46484375 4.34765625 C-71.72702482 -20.16649459 -27.8066142 -22.23615947 0 0 Z " fill="#F37528" transform="translate(626,386)"/>
<path d="M0 0 C15.57470271 0 28.45118099 3.00717667 40.09375 13.91015625 C57.72371832 33.23809283 57.30177932 56.67842691 57.1953125 81.20703125 C57.19157686 83.74435819 57.18873249 86.28168659 57.18673706 88.8190155 C57.17991737 94.78266509 57.16420324 100.74624791 57.14403808 106.70986336 C57.12155772 113.5080902 57.11065537 120.30632091 57.10064721 127.10457575 C57.07983281 141.06976594 57.04320588 155.03486206 57 169 C44.13 169 31.26 169 18 169 C17.9906543 165.69508545 17.98130859 162.3901709 17.97167969 158.98510742 C17.93784589 148.0406676 17.88226111 137.09641507 17.81609726 126.15212536 C17.77666254 119.51945727 17.74445418 112.88692116 17.72900391 106.25415039 C17.71381131 99.84787612 17.67931858 93.44196478 17.63169098 87.03585243 C17.61690419 84.59719314 17.60896055 82.15848203 17.60811615 79.71977806 C17.60573671 76.29220693 17.57857656 72.86563085 17.54589844 69.43823242 C17.5509288 68.43984848 17.55595917 67.44146454 17.56114197 66.41282654 C17.44117686 58.22914824 15.39565468 51.17021371 11.3125 44.0625 C8.24690239 41.11715507 8.24690239 41.11715507 0 38 C0 25.46 0 12.92 0 0 Z " fill="#F37629" transform="translate(428,320)"/>
<path d="M0 0 C6.39234311 4.37803564 11.1346755 9.35340488 13 17 C14.23299629 25.96842566 12.1079938 33.13303801 6.6875 40.3125 C1.01625195 45.98374805 -4.81657315 48.11724727 -12.75 48.3125 C-20.8627131 48.24332949 -26.01209087 45.31944758 -32 40 C-36.29520608 33.72955815 -39.00875973 27.3295389 -38.51171875 19.6640625 C-37.03414216 11.97164084 -33.19076485 6.24708592 -27.10546875 1.40625 C-18.60957971 -4.26818424 -9.0923495 -4.59240704 0 0 Z " fill="#FEFDFC" transform="translate(591,410)"/>
<path d="M0 0 C6.31488825 3.5442833 11.35658539 9.30253375 13.359375 16.32421875 C14.31306301 24.35470532 13.65027747 31.46764449 9.0703125 38.2265625 C4.93918591 43.4512226 0.00711267 47.0309316 -6.640625 48.32421875 C-15.51159663 49.09726056 -21.45197674 48.2450043 -28.54296875 42.88671875 C-34.26750413 37.85203224 -36.7229403 31.57488895 -38.01953125 24.15625 C-38.43624783 17.42157233 -35.31611882 11.25421393 -31.328125 6.01171875 C-28.209521 2.89311475 -25.58058673 1.29419962 -21.640625 -0.67578125 C-20.856875 -1.08828125 -20.073125 -1.50078125 -19.265625 -1.92578125 C-12.44102268 -3.87566763 -6.42362788 -2.84275457 0 0 Z " fill="#FEFDFC" transform="translate(743.640625,409.67578125)"/>
<path d="M0 0 C5.40572792 3.10264448 9.14476134 7.34668018 12.4296875 12.58203125 C14.71020285 21.27649602 14.52108449 29.35935365 9.98046875 37.23828125 C6.1740034 42.53089806 0.91703793 46.96471449 -5.5703125 48.39453125 C-13.32705983 49.19900825 -20.16477637 49.18108572 -26.5703125 44.39453125 C-32.62083834 39.4563243 -36.07823085 34.79815991 -36.953125 26.96875 C-37.30080396 19.44830284 -36.87309114 13.73465558 -32.484375 7.484375 C-23.51884905 -2.30451557 -12.16314521 -5.36163566 0 0 Z " fill="#FEFDFC" transform="translate(362.5703125,409.60546875)"/>
</svg>
