<?xml version="1.0" encoding="utf-8"?>
<!-- Generator: Adobe Illustrator 27.0.0, SVG Export Plug-In . SVG Version: 6.00 Build 0)  -->
<svg version="1.1" id="Layer_1" xmlns="http://www.w3.org/2000/svg" xmlns:xlink="http://www.w3.org/1999/xlink" x="0px" y="0px"
	 viewBox="0 0 60 60" style="enable-background:new 0 0 60 60;" xml:space="preserve">
<style type="text/css">
	.st0{fill:#61BC5A;}
	.st1{fill:#F3F3F3;}
</style>
<g>
	<path class="st0" d="M60,46.1C60,53.8,53.8,60,46.1,60H13.9C6.2,60,0,53.8,0,46.1V13.9C0,6.2,6.2,0,13.9,0h32.2
		C53.8,0,60,6.2,60,13.9V46.1z"/>
	<g>
		<path class="st1" d="M16.6,16.3V9.4c0-0.8,0.7-1.5,1.5-1.5c0.8,0,1.5,0.7,1.5,1.5v6.9c0,5.7,4.6,10.3,10.3,10.3S40.3,22,40.3,16.3
			V9.4c0-0.8,0.7-1.5,1.5-1.5c0.8,0,1.5,0.7,1.5,1.5v6.9c0,7.4-6,13.4-13.4,13.4S16.6,23.6,16.6,16.3z"/>
		<polygon class="st1" points="50.9,51.4 47.5,51.4 41.6,44.2 41.6,51.4 37.6,51.4 37.6,39.2 41.1,39.2 47,46.6 47,39.2 50.9,39.2 
					"/>
	</g>
</g>
</svg>
