<?xml version="1.0" encoding="UTF-8"?>
<svg version="1.1" xmlns="http://www.w3.org/2000/svg" width="4001" height="4001">
<path d="M0 0 C1320.33 0 2640.66 0 4001 0 C4001 1320.33 4001 2640.66 4001 4001 C2680.67 4001 1360.34 4001 0 4001 C0 2680.67 0 1360.34 0 0 Z " fill="#000000" transform="translate(0,0)"/>
<path d="M0 0 C1.88240073 -0.00323562 3.76480125 -0.00660113 5.64720154 -0.01008606 C9.57413307 -0.01601703 13.50104283 -0.01793279 17.42797852 -0.01733398 C21.34892482 -0.01725364 25.269752 -0.02405985 29.19067383 -0.0378418 C101.62848254 -0.28831495 173.78392003 4.97392293 244.80853271 19.75640869 C247.5814651 20.32700539 250.36054458 20.86389489 253.140625 21.3984375 C281.37488648 26.90924482 309.68951372 33.82596404 337.16650391 42.35400391 C339.85737989 43.18299859 342.55604734 43.98070973 345.2578125 44.7734375 C378.54127056 54.64496081 411.77455567 65.76393787 443.80859375 79.16796875 C444.92105469 79.62945313 446.03351563 80.0909375 447.1796875 80.56640625 C521.53098307 111.51126492 592.91063256 151.25344161 655.08935547 202.74853516 C657.50165093 204.74016904 659.93854742 206.70115294 662.37109375 208.66796875 C672.9359643 217.32925902 683.15943514 226.37771225 693.16918945 235.67211914 C694.35609162 236.75509004 695.55705278 237.82271873 696.76635742 238.88061523 C704.89047888 246.03216107 712.49191699 253.70023956 720.13208008 261.36108398 C722.49773565 263.73211438 724.86870889 266.09773297 727.24023438 268.46289062 C728.76724792 269.99056479 730.29395132 271.51854903 731.8203125 273.046875 C732.8674366 274.09096275 732.8674366 274.09096275 733.93571472 275.15614319 C737.87643456 279.11546072 741.64456608 283.17303099 745.28733826 287.40859985 C747.522537 289.99366145 749.85432084 292.4798229 752.18359375 294.98046875 C756.43665591 299.58322713 760.45093157 304.32543163 764.37890625 309.2109375 C766.66894548 311.99801097 769.02219546 314.71016108 771.40649414 317.41601562 C777.76649977 324.64162865 783.70381077 332.10012828 789.4921875 339.7890625 C791.72025659 342.74768944 793.98266799 345.67394394 796.28125 348.578125 C803.50795896 357.71445648 810.28001677 367.04396035 816.78515625 376.70703125 C819.42547454 380.62669619 822.15724104 384.46905063 824.93359375 388.29296875 C830.53037205 396.05649499 835.68526113 404.08683586 840.80859375 412.16796875 C841.3720752 413.05242676 841.93555664 413.93688477 842.51611328 414.84814453 C851.80435699 429.44828407 860.63858602 444.27077051 869.18701172 459.31542969 C870.95450032 462.42463426 872.73468849 465.5263618 874.51977539 468.62548828 C877.6890499 474.22708475 880.70718429 479.86837626 883.55859375 485.63671875 C886.27183366 491.09648545 889.01029638 496.54196671 891.78125 501.97265625 C920.44497045 558.32318326 943.47330244 617.46908766 959.87109375 678.54296875 C960.06554077 679.26002991 960.25998779 679.97709106 960.46032715 680.71588135 C961.01390453 682.76793542 961.55578792 684.82270971 962.09375 686.87890625 C962.4019165 688.04728027 962.71008301 689.2156543 963.02758789 690.41943359 C963.97885262 694.98514746 964.42760136 699.52466759 964.80859375 704.16796875 C954.65465879 706.17253956 944.50056439 708.17630139 934.34637833 710.17959976 C931.87522569 710.66715353 929.40408821 711.15478408 926.93295288 711.64242554 C907.71342523 715.43487099 888.49126363 719.21213213 869.25872803 722.93814087 C855.21293751 725.66266731 841.20058793 728.54175794 827.18875122 731.43518066 C811.77174353 734.61432436 796.33102843 737.54648298 780.80859375 740.16796875 C780.61861816 739.44657715 780.42864258 738.72518555 780.23291016 737.98193359 C775.43757602 719.89626686 770.02591472 702.1412349 763.93554688 684.45166016 C762.965903 681.62633301 762.01493128 678.79598463 761.07421875 675.9609375 C746.91904507 633.75262472 727.44298775 592.99304804 705.80859375 554.16796875 C705.32664551 553.30059082 704.84469727 552.43321289 704.34814453 551.53955078 C693.00621394 531.19474674 680.70465508 511.45664683 667.34960938 492.37207031 C665.8329624 490.20282302 664.32789555 488.02590743 662.82421875 485.84765625 C655.5227448 475.32639743 647.7616579 465.2031875 639.80859375 455.16796875 C639.03386719 454.18828125 638.25914063 453.20859375 637.4609375 452.19921875 C635.58810658 449.8460793 633.70190387 447.50464896 631.80859375 445.16796875 C631.09445312 444.27980469 630.3803125 443.39164063 629.64453125 442.4765625 C625.21810216 437.00817329 620.66140544 431.70263211 615.92578125 426.5 C614.02808206 424.40972986 612.1612596 422.2981076 610.30859375 420.16796875 C609.14244915 418.83417879 607.97571146 417.50090729 606.80859375 416.16796875 C606.2266626 415.49918701 605.64473145 414.83040527 605.04516602 414.14135742 C598.428104 406.65570926 591.39783361 399.60508617 584.32446289 392.5534668 C582.24314186 390.47752449 580.16724562 388.39626453 578.09179688 386.31445312 C576.74641437 384.96973123 575.40072181 383.62531946 574.0546875 382.28125 C573.44612411 381.67066238 572.83756073 381.06007477 572.21055603 380.4309845 C567.90434217 376.14773867 563.41506638 372.12485182 558.80859375 368.16796875 C557.71448824 367.21785715 556.62067435 366.26740946 555.52734375 365.31640625 C540.77893138 352.57883118 525.62953896 340.55021607 509.80859375 329.16796875 C509.01469238 328.59433594 508.22079102 328.02070312 507.40283203 327.4296875 C453.99816116 288.96877436 394.6968502 261.02417258 332.82128906 239.23095703 C329.80087994 238.16524704 326.78508598 237.08717178 323.76953125 236.0078125 C312.93008999 232.15236364 302.08480911 228.67180669 290.96044922 225.74023438 C288.05961796 224.96878572 285.16945032 224.16109296 282.27905273 223.3515625 C280.01169382 222.71735018 277.74231831 222.0907588 275.47265625 221.46484375 C272.41945483 220.62091083 269.37401255 219.75454736 266.33203125 218.87109375 C235.02453136 209.90269917 203.00955369 203.25795252 170.81079102 198.46685791 C168.8673491 198.17673978 166.92486662 197.88021717 164.98242188 197.58349609 C146.50127575 194.77806007 127.9720324 192.80723226 109.33816528 191.37036133 C107.55063364 191.22733982 105.76378809 191.07561671 103.97750854 190.91772461 C82.25624604 189.00320165 60.61924128 188.85680943 38.82885742 188.90722656 C33.89166708 188.91854947 28.95469409 188.91187863 24.01751137 188.90035439 C-9.1519275 188.83459965 -42.18220319 189.86772505 -75.19140625 193.29296875 C-76.20926208 193.39678864 -77.22711792 193.50060852 -78.27581787 193.60757446 C-136.34502434 199.58814054 -194.77174758 209.35490678 -250.60546875 226.76171875 C-253.67008683 227.7150976 -256.74253405 228.6081334 -259.83984375 229.44921875 C-334.36098377 249.72185848 -410.27468233 283.56109357 -471.19140625 331.16796875 C-472.09503906 331.87050781 -472.99867188 332.57304688 -473.9296875 333.296875 C-484.35060402 341.52391436 -494.38469007 350.22203016 -504.19140625 359.16796875 C-505.05507812 359.93882812 -505.91875 360.7096875 -506.80859375 361.50390625 C-513.39580782 367.43422363 -519.72660121 373.59809934 -526.00390625 379.85546875 C-527.20454712 381.04922119 -527.20454712 381.04922119 -528.42944336 382.26708984 C-532.66453307 386.51320728 -536.74069495 390.83746163 -540.65209961 395.38354492 C-542.73618558 397.79949804 -544.90148626 400.13696108 -547.06640625 402.48046875 C-551.98706839 407.88282221 -556.62025556 413.46896878 -561.19140625 419.16796875 C-562.09201937 420.27639001 -562.99308133 421.38444668 -563.89453125 422.4921875 C-576.36236028 437.87221017 -588.15185585 453.73367161 -599.19140625 470.16796875 C-599.86171875 471.15410156 -600.53203125 472.14023438 -601.22265625 473.15625 C-642.31580903 534.03811364 -675.05513296 600.32947538 -700.14697266 669.29931641 C-701.22971532 672.27318884 -702.32557179 675.24204016 -703.421875 678.2109375 C-719.88414445 723.06131853 -734.10357323 770.43852787 -741.05455017 817.84332275 C-741.7671797 822.63245775 -742.59624004 827.37954342 -743.54281616 832.12771606 C-746.19395486 845.44829816 -748.18698272 858.84472624 -750.06640625 872.29296875 C-750.23715668 873.50863525 -750.4079071 874.72430176 -750.58383179 875.97680664 C-757.40198321 924.8350195 -761.71990107 973.976533 -764.31640625 1023.23046875 C-764.37459534 1024.32373474 -764.37459534 1024.32373474 -764.43395996 1025.43908691 C-764.72556265 1031.01388159 -764.96912836 1036.5900015 -765.19140625 1042.16796875 C-765.23517395 1043.25824371 -765.27894165 1044.34851868 -765.32403564 1045.47183228 C-766.14640859 1066.67035895 -766.35004902 1087.84603756 -766.32177734 1109.05883789 C-766.31607607 1113.36971531 -766.31948853 1117.68053109 -766.32520199 1121.99140644 C-766.36058295 1153.18357294 -765.4466042 1184.22306656 -763.37890625 1215.35546875 C-763.29051086 1216.7021732 -763.20220445 1218.0488835 -763.11398315 1219.39559937 C-759.72441868 1270.97765116 -754.26199287 1322.01357003 -745.56378174 1372.97723389 C-745.04482046 1376.03035258 -744.53821684 1379.08549483 -744.03125 1382.140625 C-740.36316064 1404.03031293 -735.50254883 1425.62407104 -730.19140625 1447.16796875 C-730.00191406 1447.94108398 -729.81242187 1448.71419922 -729.6171875 1449.51074219 C-728.49909827 1454.06926765 -727.35676588 1458.62128361 -726.19140625 1463.16796875 C-726.00223633 1463.9067627 -725.81306641 1464.64555664 -725.61816406 1465.40673828 C-725.00097102 1467.80743038 -724.3783585 1470.20665529 -723.75390625 1472.60546875 C-723.5727124 1473.30784668 -723.39151855 1474.01022461 -723.20483398 1474.73388672 C-710.43826464 1523.39178868 -693.06993702 1570.7144542 -671.59667969 1616.18554688 C-670.2645383 1619.01276008 -668.94855489 1621.84691452 -667.63671875 1624.68359375 C-661.68294137 1637.4783086 -655.0837807 1649.85655319 -648.19140625 1662.16796875 C-647.65483398 1663.13476562 -647.65483398 1663.13476562 -647.10742188 1664.12109375 C-636.77227247 1682.73694096 -625.49892316 1700.79591975 -613.19140625 1718.16796875 C-612.6406543 1718.94543457 -612.08990234 1719.72290039 -611.52246094 1720.52392578 C-594.35596943 1744.66959738 -575.88524062 1767.85352231 -555.69677734 1789.54931641 C-554.04162332 1791.32902305 -552.3919909 1793.11377031 -550.7421875 1794.8984375 C-538.13048573 1808.52996147 -538.13048573 1808.52996147 -524.5078125 1821.1328125 C-522.02315049 1823.31579548 -519.61334942 1825.56639893 -517.20288086 1827.83056641 C-511.68721868 1833.00883632 -506.11438566 1838.01708522 -500.203125 1842.74609375 C-497.91242726 1844.58815938 -495.64964363 1846.45054814 -493.3984375 1848.33984375 C-482.97688559 1857.06572309 -472.23721711 1865.2490117 -461.19140625 1873.16796875 C-460.14339844 1873.92078125 -459.09539062 1874.67359375 -458.015625 1875.44921875 C-454.76971029 1877.73321828 -451.49157039 1879.96354737 -448.19140625 1882.16796875 C-446.81637939 1883.08666748 -446.81637939 1883.08666748 -445.41357422 1884.02392578 C-432.27384298 1892.77213968 -419.05992771 1901.28774462 -405.27636719 1908.99755859 C-403.31491185 1910.09863785 -401.36495409 1911.21733123 -399.41796875 1912.34375 C-357.8742968 1936.26598566 -313.71606895 1955.26148362 -268.19140625 1970.16796875 C-266.76248047 1970.63662354 -266.76248047 1970.63662354 -265.3046875 1971.11474609 C-258.63991496 1973.2750268 -251.93319226 1975.26251284 -245.19140625 1977.16796875 C-244.55388428 1977.34823608 -243.9163623 1977.52850342 -243.25952148 1977.7142334 C-204.81136808 1988.54737485 -165.71588458 1996.44332451 -126.19140625 2002.16796875 C-125.51348022 2002.26638062 -124.8355542 2002.36479248 -124.13708496 2002.46618652 C-102.2059756 2005.62650677 -80.21040416 2007.47932195 -58.11233521 2008.96530151 C-54.80493027 2009.1947842 -51.49919216 2009.44378694 -48.19311523 2009.69165039 C-30.89066052 2010.94812857 -13.72085859 2011.45581474 3.63549805 2011.3737793 C6.97041284 2011.3584581 10.30499326 2011.35306878 13.63991833 2011.35357761 C39.62849748 2011.35277318 65.45883127 2010.30648785 91.37109375 2008.35546875 C92.54081726 2008.26837646 93.71054077 2008.18128418 94.91571045 2008.09155273 C113.96915435 2006.66221238 132.88532018 2004.81743224 151.80859375 2002.16796875 C153.04125977 2001.99765137 154.27392578 2001.82733398 155.54394531 2001.65185547 C162.60341257 2000.67244883 169.65647892 1999.65433637 176.70751953 1998.61621094 C179.5815285 1998.20078971 182.45728594 1997.80750979 185.3359375 1997.42578125 C206.99647645 1994.53122298 228.28043342 1989.7134307 249.58105469 1984.89550781 C252.68912447 1984.19489904 255.79923598 1983.50423265 258.91015625 1982.81640625 C268.98552229 1980.57790726 278.91244704 1978.11149213 288.80859375 1975.16796875 C290.42511405 1974.7085832 292.04235919 1974.25174384 293.66015625 1973.796875 C305.45068606 1970.47925028 317.17304963 1966.99599088 328.80859375 1963.16796875 C329.48212891 1962.94705566 330.15566406 1962.72614258 330.84960938 1962.49853516 C388.31217012 1943.4438136 442.34767493 1912.91458774 489.89160156 1875.66748047 C491.79209963 1874.1808708 493.7015486 1872.70649815 495.61328125 1871.234375 C501.76134483 1866.48018787 507.6801468 1861.60011009 513.3984375 1856.328125 C515.87862859 1854.10519846 518.44596408 1852.04547299 521.05859375 1849.98046875 C526.34333974 1845.71519149 531.06941961 1841.02290499 535.82055664 1836.18530273 C538.78545944 1833.17130537 541.74905086 1830.25770952 544.99609375 1827.54296875 C549.86615375 1823.40548133 554.01649967 1818.58775525 558.28173828 1813.84765625 C560.41296005 1811.50310783 562.58625821 1809.19918368 564.75708008 1806.89135742 C569.86113156 1801.45431991 574.78787319 1795.94386946 579.44921875 1790.1171875 C581.2117367 1787.91404006 582.99111133 1785.73302244 584.79296875 1783.5625 C607.80205861 1755.75752278 626.54018639 1725.31986638 642.80859375 1693.16796875 C643.2252832 1692.35070313 643.64197266 1691.5334375 644.07128906 1690.69140625 C650.86345156 1677.27534293 655.96462821 1663.38880679 660.80859375 1649.16796875 C661.24365234 1647.92345947 661.24365234 1647.92345947 661.6875 1646.65380859 C675.87762351 1605.9771683 681.26704081 1560.83271466 681.12109375 1517.91796875 C681.11993561 1516.85279022 681.11877747 1515.78761169 681.11758423 1514.69015503 C681.08250654 1498.32357732 680.37816805 1482.35719481 677.80859375 1466.16796875 C677.57701289 1464.56786889 677.34648765 1462.96761578 677.1171875 1461.3671875 C668.94282544 1406.70409441 647.3253849 1354.50189518 612.80859375 1311.16796875 C612.00808594 1310.15605469 611.20757813 1309.14414063 610.3828125 1308.1015625 C606.1065891 1302.79136453 601.64719804 1297.6710433 597.0546875 1292.6328125 C595.55679863 1290.98904228 594.06976208 1289.33531719 592.59375 1287.671875 C584.84147065 1278.93863938 576.7146017 1270.72315362 567.80859375 1263.16796875 C566.48021484 1262.00587891 566.48021484 1262.00587891 565.125 1260.8203125 C545.46673341 1243.73484771 523.205281 1226.86631238 499.80859375 1215.16796875 C499.67211426 1216.31837646 499.53563477 1217.46878418 499.39501953 1218.65405273 C498.86014741 1222.9236018 498.17247929 1227.1536138 497.42578125 1231.390625 C497.22348656 1232.54606056 497.22348656 1232.54606056 497.0171051 1233.72483826 C496.5764909 1236.22742363 496.13103763 1238.72909573 495.68359375 1241.23046875 C495.45266525 1242.52210938 495.45266525 1242.52210938 495.21707153 1243.83984375 C492.23892109 1260.40857015 488.76676853 1276.8037162 484.80859375 1293.16796875 C484.56818359 1294.17601563 484.32777344 1295.1840625 484.08007812 1296.22265625 C479.92662283 1313.49167037 474.48178611 1330.34952675 468.80859375 1347.16796875 C468.40624512 1348.36115723 468.00389648 1349.5543457 467.58935547 1350.78369141 C454.65943767 1388.75704164 438.36353788 1425.68646548 417.80859375 1460.16796875 C417.28056152 1461.05629395 416.7525293 1461.94461914 416.20849609 1462.85986328 C403.06646131 1484.83513445 388.23151543 1505.52955594 371.80859375 1525.16796875 C371.34163086 1525.72661621 370.87466797 1526.28526367 370.39355469 1526.86083984 C364.77159176 1533.56507642 359.09033955 1540.0657014 352.80859375 1546.16796875 C350.9231832 1548.0533793 349.20864362 1550.00108237 347.49609375 1552.04296875 C343.18678037 1557.05889009 338.24822908 1561.38807567 333.33300781 1565.79199219 C331.90301263 1567.08274376 330.49179555 1568.39421349 329.08203125 1569.70703125 C322.51603111 1575.80818182 315.64215042 1581.37276338 308.54199219 1586.82861328 C306.90403681 1588.09422218 305.28022252 1589.37567541 303.66015625 1590.6640625 C233.47164901 1645.91320233 136.24385341 1677.66468819 43.0078125 1678.37109375 C41.9768341 1678.37533482 41.9768341 1678.37533482 40.92502785 1678.37966156 C37.27008327 1678.39454338 33.61517686 1678.40383576 29.96020508 1678.40820312 C27.01801809 1678.41253672 24.07613283 1678.42624264 21.1340332 1678.44921875 C-5.87786835 1678.65551247 -32.54316747 1677.14899665 -59.19140625 1672.41796875 C-60.68782427 1672.1600676 -62.18424358 1671.90217395 -63.68066406 1671.64428711 C-125.65990097 1660.81436897 -187.00406218 1640.3837556 -240.19140625 1606.16796875 C-241.05556152 1605.61254395 -241.9197168 1605.05711914 -242.81005859 1604.48486328 C-259.45186302 1593.71769691 -275.23480367 1582.17190377 -290.19140625 1569.16796875 C-290.89265625 1568.56726562 -291.59390625 1567.9665625 -292.31640625 1567.34765625 C-304.30041314 1557.01145031 -315.9186375 1546.22107791 -326.19140625 1534.16796875 C-327.40957031 1532.76611328 -327.40957031 1532.76611328 -328.65234375 1531.3359375 C-382.93909868 1468.52972833 -409.39544966 1388.65983114 -409.44140625 1306.35546875 C-409.44241837 1304.72182373 -409.44241837 1304.72182373 -409.44345093 1303.05517578 C-409.42756622 1286.90087351 -409.04329984 1271.11092139 -406.19140625 1255.16796875 C-406.00384766 1254.11335449 -405.81628906 1253.05874023 -405.62304688 1251.97216797 C-404.45780548 1245.58502359 -403.17043835 1239.23171929 -401.78369141 1232.88916016 C-401.26817984 1230.52069687 -400.77777498 1228.14909452 -400.296875 1225.7734375 C-396.05774199 1205.58557556 -388.65847894 1185.9335232 -380.19140625 1167.16796875 C-379.87880859 1166.4605957 -379.56621094 1165.75322266 -379.24414062 1165.02441406 C-365.75062236 1134.55923463 -346.35449105 1106.93765971 -324.19140625 1082.16796875 C-323.65435059 1081.56774902 -323.11729492 1080.9675293 -322.56396484 1080.34912109 C-310.45139707 1066.90759929 -297.47701865 1054.29590917 -283.19140625 1043.16796875 C-282.60375488 1042.70245605 -282.01610352 1042.23694336 -281.41064453 1041.75732422 C-264.02686554 1027.99864026 -245.62935256 1015.82626589 -226.19140625 1005.16796875 C-224.87366211 1004.44528809 -224.87366211 1004.44528809 -223.52929688 1003.70800781 C-204.72115632 993.47866881 -185.34746251 984.25011885 -165.0078125 977.484375 C-162.14931437 976.53191846 -159.38088555 975.43480851 -156.59765625 974.28125 C-150.23357949 971.70918028 -143.7034497 969.7505861 -137.12890625 967.79296875 C-136.47523071 967.5978772 -135.82155518 967.40278564 -135.14807129 967.20178223 C-49.14513924 941.61615751 41.51269151 939.86051841 236.80859375 947.16796875 C237.71949768 947.25024719 238.63040161 947.33252563 239.56890869 947.41729736 C259.14567264 949.18739733 278.58836329 951.33790148 297.97900391 954.59350586 C299.81664307 954.90106812 299.81664307 954.90106812 301.69140625 955.21484375 C302.75762207 955.39885742 303.82383789 955.58287109 304.92236328 955.77246094 C307.59725491 956.13900843 310.11360208 956.24377898 312.80859375 956.16796875 C301.90110372 897.46000772 284.17232043 838.17875763 245.80859375 791.16796875 C245.01710938 790.1728125 244.225625 789.17765625 243.41015625 788.15234375 C231.34308011 773.23150332 217.47123419 759.29189979 201.80859375 748.16796875 C201.24849609 747.76352539 200.68839844 747.35908203 200.11132812 746.94238281 C166.12712322 722.59922358 126.14257739 708.85721587 84.80859375 704.16796875 C84.12690125 704.0839682 83.44520874 703.99996765 82.74285889 703.91342163 C68.1319028 702.12406875 53.64291422 701.81001949 38.93359375 701.85546875 C37.18828369 701.85720596 37.18828369 701.85720596 35.40771484 701.85897827 C18.38204618 701.89243699 1.6639738 702.42526846 -15.22070312 704.7578125 C-18.05677098 705.14938005 -20.89461727 705.49303718 -23.73828125 705.82421875 C-82.98574381 713.06075946 -137.86383868 738.28631226 -181.19140625 779.16796875 C-182.04734375 779.96976563 -182.90328125 780.7715625 -183.78515625 781.59765625 C-196.41628709 793.78909583 -206.54053146 808.57074583 -216.19140625 823.16796875 C-229.33094411 818.26479561 -241.3765838 809.39101439 -253.22558594 802.01123047 C-258.49630248 798.73547233 -263.78114763 795.48269481 -269.06640625 792.23046875 C-270.16500977 791.55435547 -271.26361328 790.87824219 -272.39550781 790.18164062 C-280.41784427 785.24881238 -288.45862133 780.34692869 -296.50732422 775.45727539 C-304.85546713 770.38194319 -313.17515727 765.26100064 -321.49121094 760.13330078 C-327.67463827 756.32322648 -333.87132383 752.53652942 -340.08374023 748.77392578 C-352.23355187 741.41449267 -364.24060029 733.84596921 -376.19140625 726.16796875 C-375.63728979 722.53639292 -374.76089672 720.09969756 -372.671875 717.0859375 C-372.15028809 716.32684082 -371.62870117 715.56774414 -371.09130859 714.78564453 C-370.52621582 713.98368652 -369.96112305 713.18172852 -369.37890625 712.35546875 C-368.7957666 711.51741699 -368.21262695 710.67936523 -367.61181641 709.81591797 C-356.76149269 694.31587434 -345.20946006 679.66217342 -332.45703125 665.6796875 C-331.19113892 664.27629307 -329.93225095 662.86619397 -328.70092773 661.43237305 C-323.953467 655.91189393 -318.91342032 650.74039419 -313.75390625 645.60546875 C-312.94630859 644.79400391 -312.13871094 643.98253906 -311.30664062 643.14648438 C-306.43040572 638.27810803 -301.42431284 633.64823047 -296.19140625 629.16796875 C-295.14311694 628.24248494 -294.09616433 627.31548406 -293.05078125 626.38671875 C-271.76602985 607.67800307 -248.07867382 591.26901593 -223.37890625 577.3984375 C-221.85923058 576.54361993 -220.34389005 575.68106789 -218.83203125 574.8125 C-196.57087373 562.0368357 -173.05215985 551.25267174 -148.73144531 543.02832031 C-146.17760472 542.16329395 -143.63367325 541.27289451 -141.08984375 540.37890625 C-102.13044791 526.85005126 -61.82261037 519.81621097 -20.94140625 515.41796875 C-19.88638916 515.30235596 -18.83137207 515.18674316 -17.74438477 515.06762695 C1.71396793 513.10855269 21.33078505 512.931999 40.87109375 512.91796875 C41.9902417 512.91662933 43.10938965 512.91528992 44.26245117 512.91390991 C70.65113759 512.92069376 97.20521557 514.04260839 123.23291016 518.71142578 C126.28916758 519.25315103 129.35129524 519.75421913 132.4140625 520.2578125 C147.4566627 522.77899351 162.15440593 525.94084626 176.80859375 530.16796875 C177.83130371 530.4604248 178.85401367 530.75288086 179.90771484 531.05419922 C239.70540356 548.32339873 296.13738877 577.6979705 342.2265625 619.83203125 C343.64342928 621.11385626 345.06675301 622.38910588 346.51782227 623.63208008 C352.41030584 628.68735577 357.89473312 634.10565475 363.37109375 639.60546875 C364.27794922 640.50845703 365.18480469 641.41144531 366.11914062 642.34179688 C371.22454693 647.45460768 376.14701514 652.64769703 380.80859375 658.16796875 C381.34444092 658.79711182 381.88028809 659.42625488 382.43237305 660.07446289 C404.18307044 685.76680231 422.62521849 713.55385676 438.68261719 743.10839844 C439.69057198 744.95209025 440.72080061 746.78356403 441.75390625 748.61328125 C454.07872668 770.83921266 464.24714292 795.06577655 471.82421875 819.3046875 C472.69452829 821.8361831 473.67309337 824.26744041 474.69921875 826.73828125 C477.02217707 832.49492243 478.68579089 838.36983342 480.30859375 844.35546875 C480.61265137 845.46043701 480.91670898 846.56540527 481.22998047 847.70385742 C482.09560506 850.85694006 482.95327829 854.01207672 483.80859375 857.16796875 C484.19655259 858.58725653 484.58456327 860.00653014 484.97265625 861.42578125 C485.93919149 865.00117582 486.87860293 868.58295496 487.80859375 872.16796875 C487.99183197 872.87317657 488.17507019 873.5783844 488.36386108 874.30496216 C491.58072939 886.75116877 494.40884569 899.22645375 496.80859375 911.85546875 C497.06289154 913.18652145 497.06289154 913.18652145 497.32232666 914.54446411 C503.21949246 945.66923762 508.2239789 978.40988554 507.80859375 1010.16796875 C509.04996094 1010.55855469 510.29132813 1010.94914062 511.5703125 1011.3515625 C542.38583861 1021.65938297 573.08016068 1038.41252808 600.80859375 1055.16796875 C602.06736328 1055.92207031 602.06736328 1055.92207031 603.3515625 1056.69140625 C627.93384253 1071.46282116 651.81958237 1087.7278168 673.80859375 1106.16796875 C675.641342 1107.6478603 677.4746884 1109.12701135 679.30859375 1110.60546875 C684.02037304 1114.45689462 688.53823953 1118.48431338 693.0078125 1122.61328125 C695.15088334 1124.56804879 697.31615934 1126.47212752 699.51269531 1128.36499023 C703.61465292 1131.95074335 707.4984308 1135.71276827 711.34375 1139.5703125 C712.02610214 1140.25170792 712.70845428 1140.93310333 713.41148376 1141.63514709 C714.84203812 1143.06502616 716.27135142 1144.49614786 717.69946289 1145.9284668 C719.86558449 1148.09994586 722.03699549 1150.266032 724.20898438 1152.43164062 C725.60839362 1153.83171077 727.00749259 1155.23209113 728.40625 1156.6328125 C729.0449855 1157.26952377 729.68372101 1157.90623505 730.34181213 1158.5622406 C734.69398141 1162.93674169 738.79068944 1167.48587673 742.80859375 1172.16796875 C743.25764572 1172.68414764 743.70669769 1173.20032654 744.1693573 1173.73214722 C793.36415753 1230.31811728 831.03874837 1298.84670452 850.08837891 1371.47265625 C850.73526293 1373.89353749 851.4198276 1376.29713228 852.1328125 1378.69921875 C858.81787313 1401.31817731 863.00155803 1424.77187032 865.80859375 1448.16796875 C865.89838501 1448.90732666 865.98817627 1449.64668457 866.08068848 1450.40844727 C871.33994122 1494.16235109 871.81313419 1538.36632431 866.80859375 1582.16796875 C866.69644531 1583.20050781 866.58429688 1584.23304687 866.46875 1585.296875 C865.73600079 1591.94589564 864.81367244 1598.55509639 863.80859375 1605.16796875 C863.60155572 1606.54915263 863.39452496 1607.9303376 863.1875 1609.31152344 C860.3332544 1628.24110659 857.07495831 1646.92681854 852.45507812 1665.51708984 C851.87616066 1667.89091381 851.33759162 1670.26754985 850.82421875 1672.65625 C836.95122142 1736.74601616 804.83234494 1800.45537967 767.80859375 1854.16796875 C767.30424805 1854.90515137 766.79990234 1855.64233398 766.28027344 1856.40185547 C754.54098416 1873.53420929 742.20343759 1890.28621457 728.80859375 1906.16796875 C727.96296875 1907.17472656 727.11734375 1908.18148437 726.24609375 1909.21875 C723.92076569 1911.98106928 721.58264314 1914.73228457 719.24121094 1917.48095703 C717.8226022 1919.15147278 716.41265573 1920.82897917 715.00390625 1922.5078125 C702.21778495 1937.68324842 688.31538712 1951.75368094 674.30859375 1965.79296875 C673.65248108 1966.45176025 672.99636841 1967.11055176 672.32037354 1967.78930664 C665.65983572 1974.470455 659.01182332 1981.06684868 651.80859375 1987.16796875 C650.03289154 1988.78764692 648.26151068 1990.41208593 646.49609375 1992.04296875 C642.00711318 1996.13677084 637.39615899 2000.02266542 632.66796875 2003.8359375 C630.17084302 2005.87252775 627.71687121 2007.9506864 625.27441406 2010.05224609 C617.05207165 2017.11114472 608.47947739 2023.67224884 599.80859375 2030.16796875 C599.04740234 2030.73950684 598.28621094 2031.31104492 597.50195312 2031.89990234 C574.16271351 2049.38480131 549.93600523 2065.37860943 524.80859375 2080.16796875 C524.01598145 2080.63783203 523.22336914 2081.10769531 522.40673828 2081.59179688 C473.60982829 2110.43864438 421.430032 2132.68700642 367.23583984 2149.12158203 C364.17724208 2150.0554152 361.12641151 2151.00971698 358.078125 2151.9765625 C340.84136104 2157.40919755 323.35152675 2161.8492449 305.80859375 2166.16796875 C303.96273682 2166.62405518 303.96273682 2166.62405518 302.07958984 2167.08935547 C276.27772404 2173.38275616 250.0870411 2177.91902595 223.95568848 2182.60296631 C221.89794974 2182.9723951 219.84055994 2183.34377425 217.78356934 2183.71734619 C203.58613017 2186.29380964 189.38053335 2188.41509379 175.05859375 2190.16796875 C174.03822021 2190.29425659 173.01784668 2190.42054443 171.96655273 2190.55065918 C139.68940081 2194.53199836 107.29834115 2197.6192303 74.80859375 2199.16796875 C73.63119629 2199.22581543 72.45379883 2199.28366211 71.24072266 2199.34326172 C21.19676643 2201.65066536 -29.26132313 2201.1119187 -79.19140625 2197.16796875 C-80.83248352 2197.0406839 -80.83248352 2197.0406839 -82.50671387 2196.91082764 C-115.61184787 2194.33236527 -148.41428438 2190.48268882 -181.19140625 2185.16796875 C-181.91829651 2185.05066406 -182.64518677 2184.93335937 -183.394104 2184.8125 C-217.06777216 2179.35781296 -251.27723772 2172.46060649 -283.91015625 2162.453125 C-287.08295013 2161.48458 -290.27008366 2160.59155321 -293.47265625 2159.7265625 C-306.51791088 2156.19458794 -319.39833688 2152.26826301 -332.25390625 2148.10546875 C-333.02778687 2147.85602509 -333.80166748 2147.60658142 -334.59899902 2147.34957886 C-348.38145283 2142.89785872 -361.94276198 2137.95440948 -375.37890625 2132.54296875 C-376.19166016 2132.21578857 -377.00441406 2131.8886084 -377.84179688 2131.55151367 C-380.62637403 2130.42703227 -383.4088526 2129.29744741 -386.19140625 2128.16796875 C-387.27115723 2127.73210449 -388.3509082 2127.29624023 -389.46337891 2126.84716797 C-425.74503508 2112.17402599 -461.5098937 2095.62810835 -495.31591797 2075.84716797 C-498.35024891 2074.07520938 -501.39753897 2072.32684752 -504.4453125 2070.578125 C-522.8960346 2059.90444894 -540.59184966 2048.18173977 -558.19140625 2036.16796875 C-559.10696289 2035.54374023 -560.02251953 2034.91951172 -560.96582031 2034.27636719 C-578.09172293 2022.53998258 -594.49109848 2009.75912165 -610.50439453 1996.55517578 C-612.02783784 1995.30246885 -613.5602726 1994.06071615 -615.09375 1992.8203125 C-627.00654414 1983.18162003 -638.4458959 1973.05663156 -649.59375 1962.546875 C-651.81775518 1960.4503944 -654.05483152 1958.3718916 -656.3203125 1956.3203125 C-663.25311966 1950.03537949 -669.93951264 1943.52495815 -676.56640625 1936.91796875 C-677.41098389 1936.0779834 -678.25556152 1935.23799805 -679.12573242 1934.37255859 C-683.42690936 1930.0607278 -687.57277764 1925.68044179 -691.54248047 1921.06201172 C-694.2903271 1917.90569041 -697.18802508 1914.89225584 -700.06640625 1911.85546875 C-704.98634398 1906.62848215 -709.64515307 1901.30934013 -714.125 1895.69921875 C-716.19253407 1893.16658722 -718.35253966 1890.76065715 -720.56640625 1888.35546875 C-725.56633369 1882.85468502 -730.11007007 1877.03187884 -734.65087891 1871.15429688 C-736.27317077 1869.06254305 -737.90874173 1866.98171086 -739.546875 1864.90234375 C-747.71014792 1854.51864232 -755.56727792 1843.95316662 -763.19140625 1833.16796875 C-763.83932129 1832.25289551 -764.48723633 1831.33782227 -765.15478516 1830.39501953 C-773.05900775 1819.20597396 -780.79403285 1807.96951583 -787.90917969 1796.26123047 C-789.33182126 1793.93873831 -790.77939587 1791.63295606 -792.23046875 1789.328125 C-822.62859052 1740.93431514 -847.50569782 1689.38447057 -868.81640625 1636.41796875 C-869.18161377 1635.51062988 -869.54682129 1634.60329102 -869.9230957 1633.66845703 C-872.97132626 1625.96447834 -875.70495623 1618.15363837 -878.43463135 1610.33270264 C-879.15297744 1608.27789331 -879.87606425 1606.22482942 -880.60107422 1604.17236328 C-891.50427767 1573.27015598 -901.34280467 1541.99459702 -909.19140625 1510.16796875 C-909.53426671 1508.80446351 -909.87797053 1507.44116997 -910.22265625 1506.078125 C-910.84643192 1503.60062888 -911.46493558 1501.12179637 -912.0769043 1498.64135742 C-912.87222868 1495.42961498 -913.68995063 1492.22426132 -914.5168457 1489.02050781 C-918.00244083 1475.43261838 -921.04272832 1461.80179514 -923.75170898 1448.03881836 C-924.38244312 1444.8375173 -925.02358989 1441.63842631 -925.66601562 1438.43945312 C-927.70822846 1428.19751336 -929.60627763 1417.96119921 -931.16090393 1407.63360596 C-931.82778919 1403.26248233 -932.639209 1398.97497876 -933.63671875 1394.6640625 C-936.15846177 1383.31621892 -937.49936224 1371.74013041 -939.06640625 1360.23046875 C-939.2415979 1358.95065125 -939.41678955 1357.67083374 -939.59729004 1356.35223389 C-947.02619557 1301.8947222 -952.05429933 1247.09794974 -954.19140625 1192.16796875 C-954.23524445 1191.05086517 -954.23524445 1191.05086517 -954.27996826 1189.91119385 C-956.47407299 1132.7301379 -955.79089145 1075.31841552 -953.19140625 1018.16796875 C-953.15273437 1017.30236328 -953.1140625 1016.43675781 -953.07421875 1015.54492188 C-952.62496808 1005.55711675 -952.04380045 995.58296101 -951.35748291 985.60876465 C-951.17547366 982.93381067 -951.00035153 980.25845091 -950.82568359 977.58300781 C-947.33224801 924.50890059 -941.4811517 871.70805118 -933.19140625 819.16796875 C-932.93241156 817.51270202 -932.67345867 815.85742875 -932.41455078 814.20214844 C-926.59715338 777.18347959 -919.00410203 740.59347679 -909.69140625 704.29296875 C-909.44326172 703.32166016 -909.19511719 702.35035156 -908.93945312 701.34960938 C-903.77788804 681.570078 -897.71636814 662.03540692 -891.37890625 642.60546875 C-891.01890533 641.50066162 -890.65890442 640.39585449 -890.28799438 639.25756836 C-879.27602609 605.59899061 -866.61688793 572.51344416 -852.19140625 540.16796875 C-851.46824049 538.52366149 -850.74555518 536.87914281 -850.0234375 535.234375 C-847.79429324 530.1897996 -845.50260072 525.17542108 -843.19140625 520.16796875 C-842.91854797 519.5760675 -842.6456897 518.98416626 -842.36456299 518.37432861 C-829.86752305 491.283005 -816.62584435 464.75763395 -801.74414062 438.87939453 C-800.22806575 436.23198454 -798.73038338 433.57504437 -797.23828125 430.9140625 C-779.59586196 399.53466235 -759.72886285 369.02319939 -738.19140625 340.16796875 C-737.17048167 338.78913006 -736.14964973 337.41022276 -735.12890625 336.03125 C-718.14569207 313.17016509 -700.2903977 290.89398367 -680.86328125 270.05859375 C-678.73435827 267.75537298 -676.66461157 265.42765213 -674.62890625 263.04296875 C-671.35393376 259.24752386 -667.80184768 255.7473067 -664.23364258 252.23168945 C-661.6329736 249.65597121 -659.16313627 247.03837208 -656.81640625 244.23046875 C-653.25137314 240.04989036 -649.23086624 236.43001348 -645.17163086 232.74169922 C-641.64584959 229.53257455 -638.22807733 226.25115609 -634.87890625 222.85546875 C-630.80709398 218.74456708 -626.59943355 214.91218145 -622.19140625 211.16796875 C-621.14012019 210.26491026 -620.0893859 209.36120921 -619.0390625 208.45703125 C-616.63457982 206.38806565 -614.22530477 204.32487845 -611.8125 202.265625 C-609.56530149 200.34734273 -607.32793338 198.41896118 -605.1015625 196.4765625 C-596.27001609 188.8197959 -586.9496528 181.85413873 -577.54980469 174.91357422 C-575.49812343 173.39499026 -573.45586031 171.86512252 -571.41796875 170.328125 C-546.41345325 151.56775387 -519.57320746 135.30495408 -491.98681641 120.65380859 C-490.10095869 119.65142169 -488.21787081 118.64380861 -486.33740234 117.63134766 C-468.33450516 107.94397391 -449.88081396 99.42410563 -431.19140625 91.16796875 C-430.56582825 90.89084045 -429.94025024 90.61371216 -429.29571533 90.32818604 C-409.21840845 81.43715964 -388.85247635 72.95000162 -367.97265625 66.10546875 C-363.43914708 64.6186124 -359.03255113 62.93596857 -354.6171875 61.13232422 C-350.52857732 59.50692061 -346.3669867 58.11386051 -342.19140625 56.73046875 C-341.287854 56.42971436 -340.38430176 56.12895996 -339.45336914 55.8190918 C-332.88080349 53.65891814 -326.27091695 51.70126446 -319.58007812 49.94165039 C-315.50163679 48.85936314 -311.51428434 47.6193979 -307.51953125 46.2578125 C-300.91718606 44.03109651 -294.23984484 42.19333941 -287.50390625 40.41796875 C-286.86745178 40.24944397 -286.23099731 40.08091919 -285.57525635 39.9072876 C-218.19272998 22.08435298 -149.6698598 9.96487154 -80.19140625 4.16796875 C-79.33639526 4.09620422 -78.48138428 4.0244397 -77.60046387 3.95050049 C-71.54869716 3.44433379 -65.49570379 2.95537968 -59.44140625 2.48046875 C-58.66649841 2.4194397 -57.89159058 2.35841064 -57.09320068 2.29553223 C-38.07037826 0.813923 -19.08057448 0.00798414 0 0 Z " fill="#FEFEFE" transform="translate(1994.19140625,900.83203125)"/>
<path d="M0 0 C2.05614127 0.14615197 4.11229354 0.29214921 6.16845703 0.43798828 C45.47884291 3.27070034 84.22539763 9.06295225 123 16 C122.42710777 24.20105899 121.67777588 32.34683571 120.625 40.5 C120.49270996 41.53261963 120.36041992 42.56523926 120.22412109 43.62915039 C119.82063962 46.75337973 119.41060302 49.87669983 119 53 C118.88398438 53.90347168 118.76796875 54.80694336 118.6484375 55.73779297 C115.67054554 78.80347066 110.74535899 101.4757826 105 124 C104.74524902 125.00466309 104.49049805 126.00932617 104.22802734 127.04443359 C90.44530408 180.66311564 66.38349617 236.36777375 28 277 C26.86970833 278.30794571 25.74456689 279.62036248 24.625 280.9375 C16.82426326 289.8526277 8.31194305 297.6935097 -1 305 C-1.95003906 305.77859375 -2.90007813 306.5571875 -3.87890625 307.359375 C-35.60765767 332.80721139 -74.36819356 346.45889111 -114 353.3125 C-114.74008301 353.44173859 -115.48016602 353.57097717 -116.24267578 353.70413208 C-150.71736764 359.66380184 -189.2627742 360.25465739 -223.65380859 353.64160156 C-227.33044148 352.93664087 -231.01650072 352.30764898 -234.70703125 351.6796875 C-286.68994989 342.63207052 -335.56560566 321.5328426 -374 285 C-374.64324219 284.40960937 -375.28648438 283.81921875 -375.94921875 283.2109375 C-399.47788803 260.94371203 -412.7693903 227.52917545 -417 196 C-417.11214844 195.16984375 -417.22429687 194.3396875 -417.33984375 193.484375 C-421.71015027 154.45095235 -411.30304963 114.79430608 -387.30419922 83.63134766 C-382.29200754 77.36188588 -376.66931569 71.66931569 -371 66 C-370.43539063 65.38898437 -369.87078125 64.77796875 -369.2890625 64.1484375 C-359.61430999 53.83778576 -347.16208965 46.02666184 -335 39 C-333.38351562 38.05060547 -333.38351562 38.05060547 -331.734375 37.08203125 C-306.34711577 22.82304372 -278.25942377 15.11014568 -250 9 C-249.2363916 8.83371094 -248.4727832 8.66742187 -247.68603516 8.49609375 C-228.71129437 4.40341223 -209.49758002 1.93619 -190.17700195 0.19720459 C-188.71110772 0.06441598 -187.24545039 -0.07101131 -185.7800293 -0.20892334 C-124.33965536 -5.98189953 -61.47685237 -4.51358226 0 0 Z " fill="#000000" transform="translate(2190,2033)"/>
</svg>
